PathFileType  4	(X/Y/Z) C:\Users\antoi\Documents\MyRepositories\mobilecap\ResultsAnalysis
DataRate	CameraRate	NumFrames	NumMarkers	Units	OrigDataRate	OrigDataStartFrame	OrigNumFrames
100.0	100.0	4	55	mm	100.0	377	502
Frame#	Time	r_knee			r_shank_antsup			r_ankle			r_calc			r_5meta			r_toe			L_knee			L_shank_antsup			L_ankle			L_calc			L_5meta			L_toe			r_mknee			r_mankle			L_mknee			L_mankle			r_sh2			r_sh3			r_sh4			L_sh2			L_sh3			r_thigh1			r_thigh2			r_thigh3			r_thigh4			r_thigh5			L_thigh1			L_thigh2			L_thigh3			L_thigh4			r.ASIS			r.PSIS			L.ASIS			L.PSIS			C7			R_Shoulder			L_Shoulder			R_Sternum			L_Sternum			R_humerus			R_elbow_med			R_elbow_lat			R_forearm			R_wrist_radius			R_wrist_ulna			L_humerus			L_elbow_med			L_elbow_lat			L_forearm			L_wrist_radius			L_wrist_ulna			R_HJC			L_HJC			R_HJC_reg			L_HJC_reg			
		X1	Y1	Z1	X2	Y2	Z2	X3	Y3	Z3	X4	Y4	Z4	X5	Y5	Z5	X6	Y6	Z6	X7	Y7	Z7	X8	Y8	Z8	X9	Y9	Z9	X10	Y10	Z10	X11	Y11	Z11	X12	Y12	Z12	X13	Y13	Z13	X14	Y14	Z14	X15	Y15	Z15	X16	Y16	Z16	X17	Y17	Z17	X18	Y18	Z18	X19	Y19	Z19	X20	Y20	Z20	X21	Y21	Z21	X22	Y22	Z22	X23	Y23	Z23	X24	Y24	Z24	X25	Y25	Z25	X26	Y26	Z26	X27	Y27	Z27	X28	Y28	Z28	X29	Y29	Z29	X30	Y30	Z30	X31	Y31	Z31	X32	Y32	Z32	X33	Y33	Z33	X34	Y34	Z34	X35	Y35	Z35	X36	Y36	Z36	X37	Y37	Z37	X38	Y38	Z38	X39	Y39	Z39	X40	Y40	Z40	X41	Y41	Z41	X42	Y42	Z42	X43	Y43	Z43	X44	Y44	Z44	X45	Y45	Z45	X46	Y46	Z46	X47	Y47	Z47	X48	Y48	Z48	X49	Y49	Z49	X50	Y50	Z50	X51	Y51	Z51	X52	Y52	Z52	X53	Y53	Z53	X54	Y54	Z54	X55	Y55	Z55	

377	3.76000000	-273.27301	541.92705	-447.03217	-248.44435	465.87042	-433.55580	-289.34398	101.57672	-442.96449	-349.68414	52.04043	-483.54524	-144.88375	38.12461	-410.41703	-113.48422	62.09024	-472.44154	-266.57056	541.85254	-768.45961	-239.84573	425.00792	-778.49825	-297.32686	99.39608	-758.53607	-364.32600	52.46175	-717.43326	-144.84371	33.84518	-792.10500	-119.78749	59.69133	-727.06859	-271.70016	535.44243	-570.36567	-263.58705	115.08240	-533.91348	-270.93871	543.08564	-641.73062	-270.52126	114.90392	-666.18665	-246.06544	353.21521	-421.79810	-321.80838	465.46283	-411.26082	-326.87752	350.37624	-407.78284	-326.87039	437.39425	-797.85734	-328.74051	316.15013	-796.38379	-194.16009	861.43144	-430.86856	-187.05422	749.04161	-441.28433	-238.87156	719.17363	-411.63732	-306.70314	848.71757	-423.87521	-292.40382	732.00754	-422.30251	-181.21227	865.13934	-786.51598	-181.11424	725.43655	-782.27140	-300.78585	859.56384	-801.74593	-289.49863	720.55545	-795.59772	-167.44605	1049.69898	-476.66829	-352.88656	1107.56527	-565.61556	-157.10297	1046.95634	-740.61288	-349.24077	1109.01570	-669.45482	-362.01656	1605.88698	-627.12621	-298.96968	1570.64043	-447.65345	-296.20700	1583.40265	-784.83152	-207.66116	1554.90669	-590.91772	-204.70543	1551.64383	-644.00822	-305.94060	1297.36814	-363.45967	-338.52279	1207.14428	-438.28250	-325.26686	1211.20555	-355.95445	-254.11335	1068.45626	-337.05092	-206.29997	963.43558	-343.50353	-249.34579	959.27888	-331.22389	-276.83370	1321.84422	-870.51181	-324.64051	1233.12597	-815.69866	-294.19830	1234.65777	-875.66225	-230.33334	1075.46146	-886.43011	-191.05554	984.16781	-872.40718	-225.39001	974.90248	-890.00610	-260.06672	979.93699	-489.78699	-248.26464	978.31313	-719.84676	-246.53231	977.25786	-518.05090	-240.41537	979.69141	-692.27307	
378	3.77000000	-273.28602	541.89815	-447.03111	-248.46352	465.85617	-433.54212	-289.30570	101.60384	-442.95930	-349.69044	52.00228	-483.54523	-144.89669	38.07422	-410.41360	-113.48823	62.04381	-472.46243	-266.56449	541.80101	-768.46063	-239.85162	424.97225	-778.53127	-297.37742	99.29792	-758.55582	-364.38808	52.44284	-717.47323	-144.85488	33.76296	-792.06962	-119.79888	59.63093	-727.06920	-271.70617	535.46004	-570.37595	-263.60380	115.02617	-533.93000	-270.96134	543.07326	-641.74912	-270.51175	114.89732	-666.18058	-246.06159	353.20008	-421.79114	-321.83352	465.35770	-411.24378	-326.91466	350.29730	-407.79591	-326.88086	437.35708	-797.84179	-328.72945	316.11736	-796.40452	-194.15208	861.43451	-430.86775	-187.04432	749.03107	-441.25277	-238.87312	719.15876	-411.64381	-306.69299	848.71213	-423.84395	-292.39882	731.96948	-422.27685	-181.20721	865.13776	-786.51201	-181.11474	725.39281	-782.28296	-300.78501	859.49861	-801.75496	-289.49502	720.50804	-795.61359	-167.44977	1049.67222	-476.66165	-352.86903	1107.55272	-565.62159	-157.10736	1046.91188	-740.63008	-349.23024	1109.00352	-669.44366	-361.92573	1605.84819	-627.07798	-298.90924	1570.60672	-447.68785	-296.19529	1583.36378	-784.85798	-207.63423	1554.84121	-590.94516	-204.67162	1551.59287	-644.04520	-305.94862	1297.33586	-363.45905	-338.55031	1207.13502	-438.27327	-325.28032	1211.17119	-356.00037	-254.10878	1068.40481	-337.05181	-206.30391	963.38258	-343.49194	-249.36955	959.19028	-331.29176	-276.85261	1321.79279	-870.52490	-324.66118	1233.08316	-815.68916	-294.24386	1234.58410	-875.61000	-230.38148	1075.40256	-886.44736	-191.15046	984.11285	-872.44084	-225.45135	974.81829	-890.00883	-260.07176	979.91901	-489.78383	-248.27721	978.28316	-719.84389	-246.53787	977.22230	-518.04377	-240.43108	979.65707	-692.28210	
379	3.78000000	-273.29790	541.85198	-447.01801	-248.45991	465.89107	-433.54966	-289.30862	101.59950	-442.95357	-349.68930	51.93923	-483.53756	-144.92245	38.01377	-410.41718	-113.48718	61.97677	-472.46521	-266.55489	541.74273	-768.46246	-239.86082	424.92426	-778.56602	-297.37141	99.23514	-758.58385	-364.50327	52.49436	-717.58180	-144.85756	33.72297	-792.14972	-119.80493	59.57047	-727.06544	-271.70933	535.46543	-570.37025	-263.61422	114.97242	-533.94326	-270.95315	543.07877	-641.75166	-270.53651	114.82766	-666.15546	-246.01435	353.30984	-421.82520	-321.97508	465.29138	-411.29055	-326.97024	350.21551	-407.82130	-326.87043	437.31697	-797.86829	-328.73993	316.08186	-796.41023	-194.23618	861.37298	-430.87034	-187.04896	749.05403	-441.26905	-238.87971	719.12633	-411.65573	-306.69492	848.70031	-423.82994	-292.36455	732.01384	-422.24965	-181.20754	865.12856	-786.51277	-181.11376	725.34524	-782.29659	-300.78562	859.42871	-801.74045	-289.49021	720.44799	-795.62806	-167.43550	1049.66341	-476.67175	-352.87769	1107.54763	-565.62187	-157.11296	1046.86166	-740.64395	-349.20060	1109.01588	-669.45001	-361.88413	1605.81412	-627.12215	-298.85830	1570.59975	-447.70963	-296.18434	1583.31741	-784.87693	-207.59323	1554.77902	-590.95457	-204.62407	1551.51304	-644.10924	-305.95788	1297.29759	-363.45322	-338.54330	1207.13957	-438.27455	-325.26739	1211.17765	-356.01922	-254.10776	1068.36230	-337.05158	-206.32443	963.33664	-343.49705	-249.36952	959.15594	-331.27631	-276.87363	1321.73639	-870.54305	-324.68427	1233.05983	-815.71508	-294.27775	1234.52229	-875.60848	-230.43186	1075.34151	-886.46501	-191.15103	983.88137	-872.36983	-225.51563	974.73003	-890.01323	-260.07608	979.91866	-489.78177	-248.29208	978.25837	-719.84220	-246.55903	977.16666	-518.09726	-240.38837	979.63052	-692.33516	
380	3.79000000	-273.30895	541.81321	-447.00266	-248.45350	465.91224	-433.57312	-289.35170	101.57759	-442.93495	-349.69240	51.88502	-483.53277	-144.93414	38.02175	-410.41212	-113.47762	61.92272	-472.47248	-266.54624	541.67568	-768.46329	-239.86406	424.86959	-778.56092	-297.34501	99.17871	-758.62128	-364.46673	52.49101	-717.65933	-144.85471	33.69959	-792.25980	-119.78153	59.54610	-727.05977	-271.71068	535.45486	-570.35269	-263.61744	114.92537	-533.95344	-270.88665	543.12034	-641.69844	-270.56037	114.77000	-666.11747	-245.99500	353.42997	-421.86680	-322.04145	465.35196	-411.36443	-326.94932	350.22353	-407.77961	-326.85284	437.27228	-797.89023	-328.77203	316.03115	-796.41041	-194.35336	861.29079	-430.87991	-187.05393	749.07691	-441.30175	-238.89188	719.07923	-411.67259	-306.68050	848.69562	-423.80579	-292.34198	732.08157	-422.25144	-181.21317	865.13947	-786.50841	-181.11172	725.29761	-782.30995	-300.78489	859.36955	-801.74454	-289.47672	720.39820	-795.64133	-167.42269	1049.67767	-476.67240	-352.87485	1107.55296	-565.63794	-157.11942	1046.81123	-740.66313	-349.17452	1109.05413	-669.50043	-361.88139	1605.77119	-627.20456	-298.80859	1570.61462	-447.72143	-296.16633	1583.27992	-784.89186	-207.53020	1554.71747	-590.94209	-204.58453	1551.43704	-644.15084	-305.95779	1297.27531	-363.47208	-338.42102	1207.18864	-438.32821	-325.22793	1211.22115	-355.99459	-254.10920	1068.34823	-337.06078	-206.33393	963.30223	-343.49552	-249.38007	959.17090	-331.22897	-276.89688	1321.66647	-870.58445	-324.70368	1233.03085	-815.73153	-294.31622	1234.49612	-875.67302	-230.48104	1075.28033	-886.48582	-191.09224	983.53671	-872.20395	-225.57471	974.65417	-889.99803	-260.09019	979.94303	-489.78603	-248.30366	978.23956	-719.84601	-246.56206	977.09729	-518.14096	-240.35408	979.61570	-692.38897	
